<?xml version="1.0" encoding="iso-8859-1"?>
<!-- Generator: Adobe Illustrator 19.0.0, SVG Export Plug-In . SVG Version: 6.00 Build 0)  -->
<svg version="1.1" id="Capa_1" xmlns="http://www.w3.org/2000/svg" xmlns:xlink="http://www.w3.org/1999/xlink" x="0px" y="0px"
	 viewBox="0 0 448 448" style="enable-background:new 0 0 448 448;" xml:space="preserve">
<g>
	<g>
		<path d="M224,0c-52.928,0-96,43.072-96,96v96c0,52.96,43.072,96,96,96c52.928,0,96-43.072,96-96V96C320,43.072,276.928,0,224,0z
			 M288,192c0,35.296-28.704,64-64,64c-35.296,0-64-28.672-64-64V96c0-35.296,28.704-64,64-64s64,28.704,64,64V192z"/>
	</g>
</g>
<g>
	<g>
		<path d="M368,128c-8.832,0-16,7.168-16,16v48c0,70.592-57.408,128-128,128S96,262.592,96,192v-48c0-8.832-7.168-16-16-16
			c-8.832,0-16,7.168-16,16v48c0,82.752,63.36,150.24,144,158.4V432c0,8.832,7.168,16,16,16c8.832,0,16-7.168,16-16v-81.6
			c80.64-8.16,144-75.648,144-158.4v-48C384,135.168,376.832,128,368,128z"/>
	</g>
</g>
<g>
</g>
<g>
</g>
<g>
</g>
<g>
</g>
<g>
</g>
<g>
</g>
<g>
</g>
<g>
</g>
<g>
</g>
<g>
</g>
<g>
</g>
<g>
</g>
<g>
</g>
<g>
</g>
<g>
</g>
</svg>
